<?xml version="1.0" encoding="UTF-8" standalone="no"?>
<!-- Created with Inkscape (http://www.inkscape.org/) -->

<svg
   width="1050"
   height="174.99995"
   viewBox="0 0 277.8125 46.30207"
   version="1.1"
   id="svg5"
   xml:space="preserve"
   inkscape:export-filename="logo-white.png"
   inkscape:export-xdpi="96"
   inkscape:export-ydpi="96"
   inkscape:version="1.2.2 (b0a8486541, 2022-12-01)"
   sodipodi:docname="logo.svg"
   xmlns:inkscape="http://www.inkscape.org/namespaces/inkscape"
   xmlns:sodipodi="http://sodipodi.sourceforge.net/DTD/sodipodi-0.dtd"
   xmlns="http://www.w3.org/2000/svg"
   xmlns:svg="http://www.w3.org/2000/svg"><sodipodi:namedview
     id="namedview7"
     pagecolor="#505050"
     bordercolor="#ffffff"
     borderopacity="1"
     inkscape:showpageshadow="0"
     inkscape:pageopacity="0"
     inkscape:pagecheckerboard="1"
     inkscape:deskcolor="#505050"
     inkscape:document-units="px"
     showgrid="false"
     showguides="true"
     inkscape:zoom="0.55741447"
     inkscape:cx="638.66301"
     inkscape:cy="161.45975"
     inkscape:window-width="1366"
     inkscape:window-height="736"
     inkscape:window-x="0"
     inkscape:window-y="0"
     inkscape:window-maximized="1"
     inkscape:current-layer="layer1" /><defs
     id="defs2" /><g
     inkscape:label="Layer 1"
     inkscape:groupmode="layer"
     id="layer1"
     transform="translate(-4.5645009,-11.357577)"><g
       id="g4558"
       transform="translate(0,0.81432627)"
       inkscape:export-filename="pic-only.png"
       inkscape:export-xdpi="96"
       inkscape:export-ydpi="96"><path
         style="fill:#000000;stroke-width:0.144515"
         d="m 15.842335,52.086253 c -1.596401,-0.644699 -2.748038,-1.814558 -3.255489,-3.307042 -0.416003,-1.223513 -0.31467,-3.001974 0.233558,-4.098988 0.803046,-1.606936 2.087787,-2.587808 3.853817,-2.942317 3.121206,-0.62655 6.036638,1.543904 6.365941,4.739254 0.339287,3.292229 -2.296168,6.056332 -5.630318,5.905153 -0.516959,-0.02341 -1.222337,-0.15667 -1.567509,-0.29606 z m 43.227007,4.504795 c -2.931239,-1.071006 -4.409087,-4.508903 -3.134811,-7.292508 0.714745,-1.561351 1.703043,-2.428811 3.436908,-3.016695 0.606656,-0.205689 1.003841,-0.229448 2.046543,-0.122396 1.117047,0.114705 1.407957,0.200604 2.12945,0.628959 1.058457,0.628426 2.050681,1.855462 2.458276,3.040027 0.267426,0.777231 0.292272,1.084938 0.177427,2.197508 -0.11354,1.099748 -0.203716,1.411023 -0.601396,2.076135 -1.063234,1.778159 -2.956185,2.830338 -4.918027,2.733664 -0.587845,-0.02893 -1.305317,-0.139048 -1.59437,-0.244694 z M 8.5252565,47.291817 C 7.8017292,46.835679 7.250734,46.026401 7.1166593,45.222937 7.0425075,44.7787 7.4359419,40.63895 8.5484407,30.156759 l 1.5340023,-14.453633 0.505847,-0.65629 c 0.36873,-0.478436 0.726174,-0.743937 1.318906,-0.979677 l 0.813058,-0.323391 29.344948,3.067015 29.344934,3.066998 1.028345,0.647445 c 1.251688,0.788056 2.100513,1.848263 2.577611,3.219566 0.296493,0.852213 0.386821,1.784844 0.693433,7.160257 0.193887,3.399229 0.345459,6.926917 0.336802,7.839309 -0.02164,2.287692 -1.116097,12.819309 -1.404162,13.512353 -0.302665,0.728092 -1.017793,1.396342 -1.796518,1.678834 -0.562389,0.203992 -0.917519,0.208889 -2.594869,0.03569 l -1.943284,-0.200598 0.177087,-1.107633 c 0.691254,-4.323382 -2.461821,-8.426073 -6.821652,-8.876142 -4.352607,-0.449325 -8.225501,2.837144 -8.494213,7.208029 l -0.07411,1.205354 -13.988099,-1.444032 -13.988097,-1.444029 0.193003,-0.960708 c 0.720851,-3.588042 -1.683857,-7.59012 -5.239621,-8.720107 -1.094059,-0.347684 -3.051698,-0.417811 -4.157533,-0.148933 -1.777441,0.432181 -3.6086,1.68772 -4.58467,3.143482 -0.798153,1.190413 -1.153979,2.209296 -1.309921,3.750894 L 9.8817872,47.739304 9.4948849,47.699218 C 9.2820817,47.677228 8.8457282,47.493863 8.5251966,47.291794 Z M 72.895708,39.819856 c 0.160708,-1.556776 -0.578299,-14.589601 -0.859392,-15.155879 -0.326249,-0.65727 -0.710443,-1.108318 -1.234251,-1.449062 -0.470707,-0.306189 -0.882242,-0.367492 -6.04508,-0.900456 l -5.53999,-0.571899 -0.634204,6.143598 -0.634214,6.1436 2.092943,2.578451 2.092946,2.578454 5.356209,0.552931 5.356215,0.552924 z m -48.241093,-15.398218 0.63809,-6.181116 -5.658622,-0.584153 c -5.482911,-0.566003 -5.671178,-0.576173 -6.062785,-0.328696 -0.2223,0.140469 -0.495437,0.488205 -0.607018,0.772685 -0.223957,0.571004 -1.34745,10.964146 -1.204264,11.140304 0.04727,0.05815 2.824318,0.388409 6.171227,0.733916 l 6.08529,0.628189 z m 15.494002,1.56314 0.671868,-6.141323 -6.182673,-0.638241 -6.182667,-0.638238 -0.63825,6.182657 -0.638239,6.182666 6.149052,0.596894 6.14906,0.596895 z m 15.380932,1.587783 0.671858,-6.141314 -6.182667,-0.638238 -6.182665,-0.638249 -0.638238,6.182666 -0.638249,6.182664 6.149058,0.596895 6.149052,0.596884 z"
         id="path191"
         inkscape:transform-center-x="-23.984205"
         inkscape:transform-center-y="-11.867912" /><path
         style="fill:#0079c2;stroke-width:0.144515"
         d="m 16.400727,52.225071 c -1.654162,-0.477357 -2.919836,-1.522777 -3.577868,-2.95526 -0.539442,-1.174335 -0.621265,-2.953797 -0.188578,-4.101313 0.633789,-1.680892 1.811017,-2.788503 3.53132,-3.322492 3.040357,-0.943736 6.163262,0.915879 6.818936,4.060511 0.675562,3.239989 -1.662136,6.260104 -4.994182,6.452087 -0.516636,0.02977 -1.23196,-0.03028 -1.589628,-0.133533 z m 43.461084,0.04219 c -3.025725,-0.764344 -4.848777,-4.032309 -3.867078,-6.932051 0.550642,-1.626493 1.444634,-2.590856 3.108978,-3.35367 0.582324,-0.266903 0.974967,-0.331313 2.023155,-0.33191 1.122917,-6.01e-4 1.421111,0.055 2.182775,0.406985 1.117396,0.516411 2.230364,1.635078 2.757448,2.771532 0.345827,0.745652 0.402134,1.04919 0.402136,2.167665 -2e-6,1.105591 -0.05776,1.42449 -0.385023,2.12692 -0.875021,1.877929 -2.649921,3.118933 -4.611319,3.224215 -0.587713,0.03152 -1.312701,-0.004 -1.611072,-0.07969 z M 8.6300119,48.207334 C 7.8634699,47.827909 7.2322862,47.079489 7.0164158,46.294038 6.8970598,45.859762 6.8633018,41.701498 6.893553,31.160481 L 6.935264,16.62573 7.3710271,15.920966 c 0.3176754,-0.513772 0.6459544,-0.814571 1.2113406,-1.109933 l 0.7755736,-0.405164 29.5047567,0.03752 29.50476,0.03752 1.089393,0.538423 c 1.326005,0.655362 2.279193,1.622805 2.894587,2.937872 0.382441,0.817255 0.568047,1.735687 1.42502,7.051198 0.541913,3.361353 1.054919,6.854831 1.140012,7.763281 0.213366,2.277821 0.20617,12.866171 -0.0096,13.585124 -0.226302,0.755321 -0.869017,1.49348 -1.614637,1.854432 -0.538455,0.260667 -0.891206,0.301996 -2.577466,0.301997 H 68.76117 l 0.0624,-1.119956 c 0.243622,-4.371515 -3.314077,-8.128745 -7.697078,-8.128745 -4.375735,10e-7 -7.890679,3.666782 -7.709146,8.042156 l 0.05008,1.206585 -14.062441,-2.4e-5 -14.062437,-1.8e-5 0.09334,-0.975451 c 0.348602,-3.643094 -2.454354,-7.377089 -6.107351,-8.13598 -1.123979,-0.233505 -3.078473,-0.102266 -4.150853,0.278773 -1.723666,0.612418 -3.416223,2.049352 -4.237646,3.597644 -0.671692,1.266074 -0.921012,2.316114 -0.917832,3.865576 l 0.0026,1.369437 -0.3889689,-1.15e-4 C 9.4221563,48.513038 8.9692802,48.375459 8.6296956,48.20737 Z M 71.892933,34.164977 c 0,-1.565056 -2.073374,-14.453099 -2.411133,-14.987515 -0.392017,-0.620299 -0.8205,-1.029514 -1.376531,-1.314661 -0.499656,-0.256243 -0.915308,-0.27497 -6.10558,-0.274968 h -5.569425 v 6.176252 6.176245 l 2.346659,2.349897 2.346663,2.349898 h 5.384666 l 5.384681,2e-6 z m -49.567251,-10.363168 -1e-6,-6.213976 h -5.688699 c -5.512042,1e-6 -5.700357,0.0096 -6.064481,0.2956 -0.206681,0.162573 -0.442691,0.536497 -0.52447,0.830935 -0.1641369,0.590983 -0.2144729,11.044552 -0.05396,11.205071 0.05297,0.05297 2.84928,0.09631 6.213978,0.09631 h 6.11763 z m 15.572598,-0.03616 0.03771,-6.17785 h -6.215528 -6.215524 l -10e-7,6.215524 10e-7,6.215522 6.177839,-0.03769 6.177847,-0.0377 z m 15.462676,-1e-6 0.0377,-6.177849 h -6.215528 -6.215522 v 6.215522 6.215522 l 6.177836,-0.03769 6.177842,-0.0377 z"
         id="path181" /><path
         style="fill:#000000;stroke-width:0.144515"
         d="m 16.849167,52.329511 c -1.687071,-0.34341 -3.032359,-1.284163 -3.802941,-2.659382 -0.63171,-1.127378 -0.855713,-2.894586 -0.516276,-4.073055 0.497216,-1.726231 1.582002,-2.924523 3.25404,-3.594497 2.955066,-1.184075 6.216798,0.419591 7.122086,3.501657 0.932736,3.175515 -1.155714,6.373052 -4.461696,6.831148 -0.512595,0.07105 -1.230437,0.06838 -1.595213,-0.0054 z M 60.17416,48.892696 c -3.077191,-0.519697 -5.15598,-3.631254 -4.409548,-6.60027 0.41868,-1.665348 1.232618,-2.698175 2.830561,-3.591775 0.559092,-0.312645 0.945322,-0.40829 1.990091,-0.492773 1.119265,-0.0905 1.420953,-0.059 2.208347,0.230943 1.155145,0.425317 2.35409,1.451307 2.970449,2.541916 0.404399,0.715575 0.484827,1.013628 0.574361,2.128518 0.08845,1.102047 0.0565,1.424544 -0.213539,2.150921 -0.721895,1.941943 -2.39177,3.321037 -4.338438,3.582991 -0.583297,0.07849 -1.308827,0.100783 -1.612284,0.04956 z m -51.3923792,0.054 C 7.9873262,48.629828 7.2982606,47.934339 7.0202113,47.168684 6.8664596,46.745363 6.4999756,42.603141 5.6863626,32.093525 L 4.5645009,17.602082 4.9424657,16.864693 c 0.2755114,-0.537557 0.5786735,-0.86366 1.1186064,-1.203334 l 0.7406326,-0.465948 29.4130873,-2.324355 29.413078,-2.324359 1.128991,0.449484 c 1.374212,0.547122 2.401787,1.43516 3.120465,2.696748 0.446634,0.784018 0.705161,1.684647 1.984874,6.914499 0.809234,3.307194 1.600237,6.748399 1.757753,7.647122 0.395015,2.253438 1.235386,12.808374 1.078248,13.542266 -0.165114,0.77101 -0.746692,1.558243 -1.461011,1.977729 -0.515858,0.302932 -0.864179,0.372362 -2.545028,0.507339 l -1.947343,0.156392 -0.02741,-1.121364 c -0.107049,-4.376985 -3.954084,-7.837383 -8.323023,-7.486532 -4.361695,0.35025 -7.571852,4.286624 -7.040668,8.633427 l 0.146497,1.198704 -14.017315,1.125617 -14.017312,1.125628 0.01495,-0.97979 c 0.05584,-3.659318 -3.036983,-7.156964 -6.739003,-7.621012 -1.139067,-0.142786 -3.07678,0.144519 -4.115223,0.610144 -1.669115,0.74842 -3.241213,2.316227 -3.936062,3.925303 -0.5682,1.315777 -0.7326682,2.3824 -0.605465,3.92664 l 0.112344,1.364826 -0.3877292,0.03103 c -0.213267,0.01709 -0.675701,-0.08382 -1.027651,-0.224181 z M 70.717666,29.885455 C 70.592387,28.325418 67.494029,15.644696 67.114577,15.139025 66.67417,14.552099 66.214307,14.17849 65.637231,13.93877 65.118673,13.723349 64.70285,13.737957 59.52923,14.153418 l -5.551555,0.445817 0.494388,6.156419 0.494377,6.156431 2.527227,2.154532 2.527221,2.154526 5.367388,-0.431021 5.367401,-0.431017 z M 20.479933,23.523196 19.98253,17.329167 14.312093,17.784522 c -5.4943557,0.441212 -5.6813343,0.465476 -6.0213626,0.780082 -0.1930229,0.178578 -0.3983269,0.570208 -0.4562749,0.870254 -0.1163073,0.602226 0.6702938,11.026274 0.8431423,11.173428 0.057052,0.04858 2.8478392,-0.132039 6.2017402,-0.401364 l 6.097999,-0.489692 z m 15.519745,-1.282547 -0.456941,-6.161036 -6.195581,0.497528 -6.195582,0.49753 0.497528,6.195573 0.497527,6.195583 6.15501,-0.53208 6.154997,-0.53207 z m 15.413057,-1.237723 -0.456951,-6.161035 -6.195574,0.497529 -6.195581,0.497529 0.497529,6.195572 0.497528,6.195572 6.154996,-0.532069 6.15501,-0.532071 z"
         id="path183"
         inkscape:transform-center-x="-21.966644"
         inkscape:transform-center-y="-15.700771" /></g><text
       xml:space="preserve"
       style="font-style:normal;font-variant:normal;font-weight:normal;font-stretch:normal;font-size:91.4649px;line-height:1.25;font-family:'Noto Sans Mono CJK HK';-inkscape-font-specification:'Noto Sans Mono CJK HK';letter-spacing:-4.28743px;fill:#ffffff;fill-opacity:1;stroke:none;stroke-width:2.28662"
       x="81.768898"
       y="58.310642"
       id="text294"><tspan
         sodipodi:role="line"
         id="tspan292"
         style="font-style:normal;font-variant:normal;font-weight:normal;font-stretch:normal;font-family:Gidugu;-inkscape-font-specification:Gidugu;stroke-width:2.28662;fill:#ffffff"
         x="81.768898"
         y="58.310642"
         dx="0">MCATS</tspan></text></g></svg>
